<?xml version="1.0" encoding="utf-8"?>
<!-- Generator: Adobe Illustrator 21.0.0, SVG Export Plug-In . SVG Version: 6.00 Build 0)  -->
<svg version="1.1" id="Layer_1" xmlns="http://www.w3.org/2000/svg" xmlns:xlink="http://www.w3.org/1999/xlink" x="0px" y="0px"
	 viewBox="0 0 100 100" style="enable-background:new 0 0 100 100;" xml:space="preserve">
<style type="text/css">
	.st0{fill:none;stroke:#000000;stroke-width:3;}
</style>
<g>
	<path class="st0" d="M9.9,42.9c5.7,0,9.8,3.6,11.8,10.3c1.2,4.1,3.7,6.8,8,6.8s6.8-2.7,8-6.8c2-6.7,6.1-10.3,11.8-10.3
		c5.7,0,9.8,3.6,11.8,10.3c1.2,4.1,3.7,6.8,8,6.8c4.3,0,6.8-2.7,8-6.8c2-6.7,6.1-10.3,11.8-10.3v3.6c-4,0-6.9,2.7-8,6.8
		C79,60,74.8,63.6,69.1,63.6c-5.7,0-9.9-3.6-11.8-10.3c-1.1-4.1-3.9-6.8-8-6.8c-4,0-6.9,2.7-8,6.8c-1.9,6.7-6.1,10.3-11.8,10.3
		S19.8,60,17.9,53.3c-1.1-4.1-3.9-6.8-8-6.8V42.9z"/>
</g>
</svg>
